<svg width="512" height="512" viewBox="0 0 512 512" fill="none" xmlns="http://www.w3.org/2000/svg">
<g clip-path="url(#clip0_2_38)">
<path d="M256 512C323.895 512 389.01 485.029 437.019 437.019C485.029 389.01 512 323.895 512 256C512 188.105 485.029 122.99 437.019 74.9807C389.01 26.9714 323.895 0 256 0C188.105 0 122.99 26.9714 74.9807 74.9807C26.9714 122.99 0 188.105 0 256C0 323.895 26.9714 389.01 74.9807 437.019C122.99 485.029 188.105 512 256 512ZM388.1 312.8C400.4 309 412.4 319.7 407.4 331.5C382.4 390.6 324.2 432 256.3 432C188.4 432 130.1 390.6 105.2 331.5C100.2 319.7 112.2 309 124.5 312.8C164.2 325 209 331.8 256.3 331.8C303.6 331.8 348.4 325 388.1 312.8ZM199.3 129.1C217.1 133.9 227.7 152.2 222.9 169.9L205.5 234.9C203.2 243.4 194.4 248.5 185.9 246.2L120.8 228.8C103 224 92.4 205.7 97.2 188C102 170.3 120.3 159.6 138 164.4L154.1 168.7L158.4 152.6C163.2 134.8 181.5 124.2 199.2 129L199.3 129.1ZM353.6 152.7L357.9 168.8L374 164.5C391.8 159.7 410.1 170.3 414.8 188.1C419.5 205.9 409 224.2 391.2 228.9L326.1 246.3C317.6 248.6 308.8 243.5 306.5 235L289.1 170C284.3 152.2 294.9 133.9 312.7 129.2C330.5 124.5 348.8 135 353.6 152.8V152.7Z" fill="#0D910A"/>
</g>
<defs>
<clipPath id="clip0_2_38">
<rect width="512" height="512" fill="white"/>
</clipPath>
</defs>
</svg>
