<svg width="512" height="356" viewBox="0 0 512 356" fill="none" xmlns="http://www.w3.org/2000/svg">
<path d="M65.2467 32.5894C65.4101 14.8902 51.2427 0.458786 33.5435 0.295401C15.8442 0.132016 1.41286 14.2994 1.24947 31.9987L0.363318 127.995C-0.125914 180.992 42.4753 224.387 95.4731 224.877L402.16 227.708L328.086 300.427C315.471 312.811 315.283 333.11 327.667 345.725C340.052 358.34 360.351 358.527 372.966 346.143L502.142 219.33C514.756 206.946 514.944 186.647 502.56 174.032L375.747 44.8561C363.363 32.2413 343.064 32.0539 330.449 44.438C317.834 56.822 317.646 77.1212 330.031 89.736L402.751 163.71L96.0638 160.879C78.3646 160.716 64.1972 146.285 64.3606 128.585L65.2467 32.5894Z" fill="#A9A9A9"/>
</svg>
