<svg width="291" height="301" viewBox="0 0 291 301" fill="none" xmlns="http://www.w3.org/2000/svg">
<path d="M162.288 6.67324L162.62 6.96754L162.696 6.90035L283.566 114.112C292.811 122.312 292.811 135.602 283.566 143.802C274.287 152.033 259.194 152.033 249.915 143.802L170.072 72.982L169.241 72.2442V73.356V279.499C169.241 291.061 158.69 300.5 145.5 300.5C132.31 300.5 121.759 291.061 121.759 279.499V73.356V72.2435L120.927 72.9821L41.0854 143.869C31.8058 152.1 16.7131 152.1 7.4335 143.869C-1.81117 135.669 -1.81117 122.379 7.4335 114.179L128.636 6.67324C137.916 -1.55775 153.008 -1.55775 162.288 6.67324Z" fill="#1A55B4" stroke="black"/>
</svg>
