<svg width="542" height="385" viewBox="0 0 542 385" fill="none" xmlns="http://www.w3.org/2000/svg">
<g clip-path="url(#clip0_1_12)" filter="url(#filter0_d_1_12)">
<path d="M36.3736 3.75526C27.6961 -2.28263 15.097 -0.883605 8.25512 6.77421C1.41324 14.432 2.99856 25.5506 11.6761 31.5885L505.626 373.245C514.304 379.283 526.903 377.884 533.745 370.226C540.586 362.568 539.001 351.449 530.324 345.411L442.547 284.738C475.589 254.843 497.95 221.34 509.214 197.557C511.967 191.74 511.967 185.26 509.214 179.443C496.782 153.156 470.666 114.867 431.617 82.9105C392.401 50.6594 338.417 23.5625 271 23.5625C214.095 23.5625 166.703 42.9279 129.74 68.3312L36.3736 3.75526ZM162.364 90.8629C192.569 71.9392 228.864 58.9062 271 58.9062C325.401 58.9062 370.124 80.7015 404.416 108.756C436.54 135.116 458.734 166.41 470.082 188.5C459.569 209.117 439.544 237.687 410.924 262.796L366.035 231.722C373.628 218.763 377.883 204.11 377.883 188.5C377.883 136.442 330.074 94.25 271.083 94.25C244.216 94.25 219.602 103.012 200.829 117.444L162.364 90.8629ZM333.494 209.264L265.493 162.213C268.997 155.954 271 148.812 271 141.375C271 137.325 270.416 133.349 269.331 129.594C269.915 129.594 270.416 129.594 271 129.594C307.879 129.594 337.75 155.954 337.75 188.5C337.75 195.79 336.248 202.785 333.494 209.264ZM341.338 305.208C320.061 313.234 296.615 318.094 271 318.094C216.599 318.094 171.876 296.298 137.583 268.244C105.46 241.884 83.2654 210.59 71.9179 188.5C78.8432 174.952 89.857 157.942 104.792 140.786L73.3364 118.917C54.3126 140.786 40.7123 162.581 32.7857 179.443C30.0323 185.26 30.0323 191.74 32.7857 197.557C45.2179 223.844 71.3339 262.133 110.383 294.089C149.598 326.341 203.582 353.437 271 353.437C310.883 353.437 346.01 343.939 376.298 329.507L341.338 305.208ZM164.2 188.5C164.2 240.558 212.009 282.75 271 282.75C282.097 282.75 292.777 281.277 302.873 278.479L255.981 245.934C236.373 241.957 220.019 230.323 211.175 214.787L164.367 182.241C164.2 184.303 164.116 186.365 164.116 188.5H164.2Z" fill="black"/>
</g>
<defs>
<filter id="filter0_d_1_12" x="0" y="0" width="542" height="385" filterUnits="userSpaceOnUse" color-interpolation-filters="sRGB">
<feFlood flood-opacity="0" result="BackgroundImageFix"/>
<feColorMatrix in="SourceAlpha" type="matrix" values="0 0 0 0 0 0 0 0 0 0 0 0 0 0 0 0 0 0 127 0" result="hardAlpha"/>
<feOffset dy="4"/>
<feGaussianBlur stdDeviation="2"/>
<feComposite in2="hardAlpha" operator="out"/>
<feColorMatrix type="matrix" values="0 0 0 0 0 0 0 0 0 0 0 0 0 0 0 0 0 0 0.25 0"/>
<feBlend mode="normal" in2="BackgroundImageFix" result="effect1_dropShadow_1_12"/>
<feBlend mode="normal" in="SourceGraphic" in2="effect1_dropShadow_1_12" result="shape"/>
</filter>
<clipPath id="clip0_1_12">
<rect width="534" height="377" fill="white" transform="translate(4)"/>
</clipPath>
</defs>
</svg>
