<svg width="432" height="112" viewBox="0 0 432 112" fill="none" xmlns="http://www.w3.org/2000/svg">
<path d="M0 56C0 41.1479 5.89998 26.9041 16.402 16.402C26.9041 5.89999 41.1479 0 56 0C70.8521 0 85.0959 5.89999 95.598 16.402C106.1 26.9041 112 41.1479 112 56C112 70.8521 106.1 85.096 95.598 95.598C85.0959 106.1 70.8521 112 56 112C41.1479 112 26.9041 106.1 16.402 95.598C5.89998 85.096 0 70.8521 0 56ZM160 56C160 41.1479 165.9 26.9041 176.402 16.402C186.904 5.89999 201.148 0 216 0C230.852 0 245.096 5.89999 255.598 16.402C266.1 26.9041 272 41.1479 272 56C272 70.8521 266.1 85.096 255.598 95.598C245.096 106.1 230.852 112 216 112C201.148 112 186.904 106.1 176.402 95.598C165.9 85.096 160 70.8521 160 56ZM376 0C390.852 0 405.096 5.89999 415.598 16.402C426.1 26.9041 432 41.1479 432 56C432 70.8521 426.1 85.096 415.598 95.598C405.096 106.1 390.852 112 376 112C361.148 112 346.904 106.1 336.402 95.598C325.9 85.096 320 70.8521 320 56C320 41.1479 325.9 26.9041 336.402 16.402C346.904 5.89999 361.148 0 376 0Z" fill="#A9A9A9"/>
</svg>
