<svg width="470" height="319" viewBox="0 0 470 319" fill="none" xmlns="http://www.w3.org/2000/svg">
<path d="M235 34.7188C181.799 34.7188 138.063 55.7047 104.526 82.717C73.1111 108.099 51.4062 138.23 40.309 159.5C51.4062 180.77 73.1111 210.901 104.444 236.283C138.062 263.295 181.799 284.281 235 284.281C288.201 284.281 331.938 263.295 365.474 236.283C396.889 210.901 418.594 180.77 429.691 159.5C418.594 138.23 396.889 108.099 365.556 82.717C331.938 55.7047 288.201 34.7188 235 34.7188ZM77.8437 57.8316C116.276 26.7781 169.069 0.6875 235 0.6875C300.931 0.6875 353.724 26.7781 392.156 57.8316C430.344 88.6725 455.884 125.469 468.042 150.779C470.734 156.38 470.734 162.62 468.042 168.22C455.884 193.531 430.344 230.398 392.156 261.168C353.724 292.222 300.931 318.312 235 318.312C169.069 318.312 116.276 292.222 77.8437 261.168C39.6562 230.398 14.1163 193.531 2.03992 168.22C-0.652791 162.62 -0.652791 156.38 2.03992 150.779C14.1163 125.469 39.6562 88.6016 77.8437 57.8316ZM235 216.219C271.066 216.219 300.278 190.837 300.278 159.5C300.278 128.163 271.066 102.781 235 102.781C234.429 102.781 233.939 102.781 233.368 102.781C234.429 106.397 235 110.226 235 114.125C235 139.152 211.582 159.5 182.778 159.5C178.29 159.5 173.884 159.004 169.722 158.082C169.722 158.578 169.722 159.004 169.722 159.5C169.722 190.837 198.934 216.219 235 216.219ZM235 68.75C262.7 68.75 289.266 78.3111 308.853 95.3301C328.441 112.349 339.444 135.432 339.444 159.5C339.444 183.568 328.441 206.651 308.853 223.67C289.266 240.689 262.7 250.25 235 250.25C207.3 250.25 180.734 240.689 161.147 223.67C141.559 206.651 130.556 183.568 130.556 159.5C130.556 135.432 141.559 112.349 161.147 95.3301C180.734 78.3111 207.3 68.75 235 68.75Z" fill="black"/>
</svg>
