<svg width="440" height="499" viewBox="0 0 440 499" fill="none" xmlns="http://www.w3.org/2000/svg">
<path d="M360 74.325C335.6 49.925 296 49.925 271.6 74.325L87.6 258.325C45.5 300.425 45.5 368.625 87.6 410.725C129.7 452.825 197.9 452.825 240 410.725L392 258.725C402.9 247.825 420.7 247.825 431.6 258.725C442.5 269.625 442.5 287.425 431.6 298.325L279.6 450.325C215.6 514.325 112 514.325 48 450.325C-16 386.325 -16 282.725 48 218.725L232 34.725C278.3 -11.575 353.3 -11.575 399.6 34.725C445.9 81.025 445.9 156.025 399.6 202.325L223.6 378.325C195 406.925 148.6 406.925 120 378.325C91.4 349.725 91.4 303.325 120 274.725L264 130.725C274.9 119.825 292.7 119.825 303.6 130.725C314.5 141.625 314.5 159.425 303.6 170.325L159.6 314.325C152.9 321.025 152.9 332.025 159.6 338.725C166.3 345.425 177.3 345.425 184 338.725L360 162.725C384.4 138.325 384.4 98.725 360 74.325Z" fill="#A9A9A9"/>
</svg>
