<svg width="534" height="497" viewBox="0 0 534 497" fill="none" xmlns="http://www.w3.org/2000/svg">
<path d="M308.077 38.2308C308.077 17.0844 289.721 0 267 0C244.279 0 225.923 17.0844 225.923 38.2308V210.269H41.0769C18.3562 210.269 0 227.354 0 248.5C0 269.646 18.3562 286.731 41.0769 286.731H225.923V458.769C225.923 479.916 244.279 497 267 497C289.721 497 308.077 479.916 308.077 458.769V286.731H492.923C515.644 286.731 534 269.646 534 248.5C534 227.354 515.644 210.269 492.923 210.269H308.077V38.2308Z" fill="white"/>
</svg>
