<svg width="391" height="301" viewBox="0 0 391 301" fill="none" xmlns="http://www.w3.org/2000/svg">
<path d="M9.57787 132.04L9.99415 131.671L9.9076 131.592L149.568 7.69024C160.32 -1.84889 177.704 -1.73896 188.335 7.93539C198.935 17.5817 198.837 33.1138 188.116 42.6253L95.8399 124.489L94.8641 125.355L96.1686 125.363L363.248 127.052C378.432 127.148 390.536 138.236 390.45 151.756C390.365 165.275 378.122 176.209 362.938 176.113L95.8583 174.424L94.5529 174.416L95.5188 175.294L186.839 258.319C186.839 258.319 186.839 258.319 186.839 258.319C197.439 267.965 197.34 283.497 186.619 293.008C175.867 302.548 158.483 302.438 147.852 292.763L9.35849 166.73C-1.24151 157.084 -1.14328 141.552 9.57787 132.04Z" fill="#A9A9A9" stroke="black"/>
</svg>
