<svg width="438" height="438" viewBox="0 0 438 438" fill="none" xmlns="http://www.w3.org/2000/svg">
<path d="M0 48V197.5C0 214.5 6.7 230.8 18.7 242.8L194.7 418.8C219.7 443.8 260.2 443.8 285.2 418.8L418.7 285.3C443.7 260.3 443.7 219.8 418.7 194.8L242.7 18.8C230.7 6.79999 214.4 0.0999873 197.4 0.0999873H48C21.5 -1.26805e-05 0 21.5 0 48ZM112 80C120.487 80 128.626 83.3714 134.627 89.3726C140.629 95.3737 144 103.513 144 112C144 120.487 140.629 128.626 134.627 134.627C128.626 140.629 120.487 144 112 144C103.513 144 95.3737 140.629 89.3726 134.627C83.3714 128.626 80 120.487 80 112C80 103.513 83.3714 95.3737 89.3726 89.3726C95.3737 83.3714 103.513 80 112 80Z" fill="#A9A9A9"/>
</svg>
