<svg width="512" height="512" viewBox="0 0 512 512" fill="none" xmlns="http://www.w3.org/2000/svg">
<g clip-path="url(#clip0_2_46)">
<path d="M256 288C294.191 288 330.818 272.829 357.823 245.823C384.829 218.818 400 182.191 400 144C400 105.809 384.829 69.1819 357.823 42.1766C330.818 15.1714 294.191 0 256 0C217.809 0 181.182 15.1714 154.177 42.1766C127.171 69.1819 112 105.809 112 144C112 182.191 127.171 218.818 154.177 245.823C181.182 272.829 217.809 288 256 288ZM161.3 320C72.2 320 0 392.2 0 481.3C0 498.3 13.8 512 30.7 512H481.3C498.3 512 512 498.2 512 481.3C512 392.2 439.8 320 350.7 320H161.3Z" fill="#1A55B4"/>
</g>
<defs>
<clipPath id="clip0_2_46">
<rect width="512" height="512" fill="white"/>
</clipPath>
</defs>
</svg>
